<svg xmlns="http://www.w3.org/2000/svg" xmlns:xlink="http://www.w3.org/1999/xlink" zoomAndPan="magnify" preserveAspectRatio="xMidYMid meet" version="1.0" viewBox="112.5 112.5 150 150"><defs><clipPath id="a9324ecfae"><path d="M 112.5 112.5 L 262.5 112.5 L 262.5 262.5 L 112.5 262.5 Z M 112.5 112.5 " clip-rule="nonzero"/></clipPath></defs><g clip-path="url(#a9324ecfae)"><path fill="#e7e9ea" d="M 112.53125 187.5 C 112.53125 146.085938 146.101562 112.515625 187.515625 112.515625 C 228.929688 112.515625 262.5 146.085938 262.5 187.5 C 262.5 228.496094 229.597656 261.820312 188.761719 262.484375 L 112.53125 262.484375 L 136.089844 242.074219 C 134.234375 240.328125 132.46875 238.492188 130.800781 236.566406 C 129.128906 234.640625 127.5625 232.632812 126.097656 230.546875 C 124.632812 228.460938 123.28125 226.304688 122.035156 224.078125 C 120.792969 221.851562 119.664062 219.570312 118.65625 217.230469 C 117.644531 214.886719 116.757812 212.503906 115.992188 210.070312 C 115.222656 207.640625 114.582031 205.175781 114.070312 202.679688 C 113.554688 200.179688 113.171875 197.664062 112.914062 195.128906 C 112.65625 192.59375 112.53125 190.050781 112.53125 187.5 Z M 112.53125 187.5 " fill-opacity="1" fill-rule="nonzero"/></g></svg>