<svg xmlns="http://www.w3.org/2000/svg" xmlns:xlink="http://www.w3.org/1999/xlink" zoomAndPan="magnify" preserveAspectRatio="xMidYMid meet" version="1.0" viewBox="13.15 0 150 150"><defs><g/><clipPath id="e1138a5d50"><path d="M 13.152344 0 L 163.152344 0 L 163.152344 150 L 13.152344 150 Z M 13.152344 0 " clip-rule="nonzero"/></clipPath></defs><g clip-path="url(#e1138a5d50)"><path fill="#f7e638" d="M 13.1875 75 C 13.1875 33.585938 46.757812 0.015625 88.171875 0.015625 C 129.582031 0.015625 163.152344 33.585938 163.152344 75 C 163.152344 115.996094 130.25 149.320312 89.414062 149.984375 L 13.1875 149.984375 L 36.742188 129.574219 C 34.886719 127.828125 33.121094 125.992188 31.453125 124.066406 C 29.785156 122.140625 28.214844 120.132812 26.753906 118.046875 C 25.289062 115.960938 23.933594 113.804688 22.691406 111.578125 C 21.445312 109.351562 20.320312 107.070312 19.308594 104.730469 C 18.296875 102.386719 17.410156 100.003906 16.644531 97.570312 C 15.878906 95.140625 15.238281 92.675781 14.722656 90.179688 C 14.210938 87.679688 13.824219 85.164062 13.566406 82.628906 C 13.308594 80.09375 13.183594 77.550781 13.1875 75 Z M 13.1875 75 " fill-opacity="1" fill-rule="nonzero"/></g><g fill="#1d1d1d" fill-opacity="1"><g transform="translate(18.896083, 87.522891)"><g><path d="M 19.046875 -35.484375 C 23.597656 -35.484375 27.28125 -34.238281 30.09375 -31.75 C 32.90625 -29.257812 34.488281 -26.039062 34.84375 -22.09375 L 26 -22.09375 C 25.21875 -26.820312 22.832031 -29.1875 18.84375 -29.1875 C 16.46875 -29.1875 14.570312 -28.207031 13.15625 -26.25 C 11.75 -24.300781 11.046875 -21.421875 11.046875 -17.609375 C 11.046875 -13.492188 11.738281 -10.425781 13.125 -8.40625 C 14.507812 -6.394531 16.394531 -5.390625 18.78125 -5.390625 C 20.5625 -5.390625 22.066406 -5.953125 23.296875 -7.078125 C 24.535156 -8.210938 25.375 -9.835938 25.8125 -11.953125 L 34.78125 -11.953125 C 34.039062 -7.796875 32.207031 -4.613281 29.28125 -2.40625 C 26.351562 -0.195312 22.679688 0.90625 18.265625 0.90625 C 13.367188 0.90625 9.390625 -0.640625 6.328125 -3.734375 C 3.273438 -6.835938 1.75 -11.269531 1.75 -17.03125 C 1.75 -22.75 3.394531 -27.253906 6.6875 -30.546875 C 9.988281 -33.835938 14.109375 -35.484375 19.046875 -35.484375 Z M 19.046875 -35.484375 "/></g></g></g><g fill="#1d1d1d" fill-opacity="1"><g transform="translate(49.831733, 87.522891)"><g><path d="M 36.328125 -25.8125 C 36.503906 -24.25 36.59375 -22.144531 36.59375 -19.5 L 36.59375 0 L 27.625 0 L 27.625 -18.265625 C 27.625 -20.296875 27.582031 -21.898438 27.5 -23.078125 C 27.195312 -27.148438 24.984375 -29.1875 20.859375 -29.1875 C 18.523438 -29.144531 16.640625 -28.039062 15.203125 -25.875 C 13.773438 -23.707031 13.0625 -20.347656 13.0625 -15.796875 L 13.0625 0 L 4.09375 0 L 4.09375 -48.09375 L 13.0625 -48.09375 L 13.0625 -28.984375 L 15.734375 -33.078125 C 17.984375 -34.679688 20.753906 -35.484375 24.046875 -35.484375 C 27.691406 -35.484375 30.5625 -34.640625 32.65625 -32.953125 C 34.757812 -31.265625 35.984375 -28.882812 36.328125 -25.8125 Z M 36.328125 -25.8125 "/></g></g></g><g fill="#1d1d1d" fill-opacity="1"><g transform="translate(84.666922, 87.522891)"><g><path d="M 5 -46.109375 C 5.914062 -47.003906 7.109375 -47.453125 8.578125 -47.453125 C 10.054688 -47.453125 11.25 -47.003906 12.15625 -46.109375 C 13.0625 -45.222656 13.515625 -44.085938 13.515625 -42.703125 C 13.515625 -41.273438 13.0625 -40.125 12.15625 -39.25 C 11.25 -38.382812 10.054688 -37.953125 8.578125 -37.953125 C 7.109375 -37.953125 5.914062 -38.382812 5 -39.25 C 4.09375 -40.125 3.640625 -41.273438 3.640625 -42.703125 C 3.640625 -44.085938 4.09375 -45.222656 5 -46.109375 Z M 13.0625 0 L 4.09375 0 L 4.09375 -34.578125 L 13.0625 -34.578125 Z M 13.0625 0 "/></g></g></g><g fill="#1d1d1d" fill-opacity="1"><g transform="translate(96.429863, 87.522891)"><g><path d="M 21.703125 -35.421875 C 22.703125 -35.421875 23.550781 -35.335938 24.25 -35.171875 L 24.25 -27.953125 C 20.4375 -28.210938 17.617188 -27.398438 15.796875 -25.515625 C 13.972656 -23.628906 13.0625 -20.410156 13.0625 -15.859375 L 13.0625 0 L 4.09375 0 L 4.09375 -34.578125 L 13.0625 -34.578125 L 13.0625 -28.28125 L 15.796875 -33.078125 C 17.484375 -34.640625 19.453125 -35.421875 21.703125 -35.421875 Z M 21.703125 -35.421875 "/></g></g></g><g fill="#1d1d1d" fill-opacity="1"><g transform="translate(115.601926, 87.522891)"><g><path d="M 24.640625 -35.484375 C 29.398438 -35.484375 33.15625 -33.859375 35.90625 -30.609375 C 38.664062 -27.359375 40.046875 -23.132812 40.046875 -17.9375 C 40.046875 -11.957031 38.460938 -7.320312 35.296875 -4.03125 C 32.128906 -0.738281 28.1875 0.90625 23.46875 0.90625 C 19.914062 0.90625 17.207031 0.253906 15.34375 -1.046875 L 13.0625 -4.609375 L 13.0625 12.734375 L 4.09375 12.734375 L 4.09375 -34.578125 L 13.0625 -34.578125 L 13.0625 -29.3125 L 15.671875 -33.078125 C 17.660156 -34.679688 20.648438 -35.484375 24.640625 -35.484375 Z M 21.703125 -5.390625 C 24.390625 -5.390625 26.566406 -6.414062 28.234375 -8.46875 C 29.910156 -10.53125 30.75 -13.492188 30.75 -17.359375 C 30.75 -20.910156 29.957031 -23.769531 28.375 -25.9375 C 26.789062 -28.101562 24.675781 -29.1875 22.03125 -29.1875 C 19.34375 -29.1875 17.175781 -28.265625 15.53125 -26.421875 C 13.882812 -24.578125 13.0625 -21.664062 13.0625 -17.6875 L 13.0625 -16.0625 C 13.0625 -12.414062 13.90625 -9.722656 15.59375 -7.984375 C 17.289062 -6.253906 19.328125 -5.390625 21.703125 -5.390625 Z M 21.703125 -5.390625 "/></g></g></g><g fill="#1d1d1d" fill-opacity="1"><g transform="translate(38.517974, 97.14571)"><g><path d="M 2.75 -4.40625 C 3.175781 -4.40625 3.53125 -4.304688 3.8125 -4.109375 C 4.101562 -3.921875 4.320312 -3.660156 4.46875 -3.328125 C 4.625 -3.003906 4.703125 -2.628906 4.703125 -2.203125 C 4.703125 -1.679688 4.601562 -1.25 4.40625 -0.90625 C 4.21875 -0.5625 3.960938 -0.304688 3.640625 -0.140625 C 3.328125 0.0234375 2.984375 0.109375 2.609375 0.109375 C 2.429688 0.109375 2.238281 0.0820312 2.03125 0.03125 C 1.832031 -0.0195312 1.679688 -0.0859375 1.578125 -0.171875 L 1.296875 -0.59375 L 1.296875 0 L 0.59375 0 L 0.59375 -5.953125 L 1.296875 -5.953125 L 1.296875 -3.609375 L 1.625 -4.0625 C 1.75 -4.164062 1.910156 -4.25 2.109375 -4.3125 C 2.316406 -4.375 2.53125 -4.40625 2.75 -4.40625 Z M 2.609375 -0.421875 C 2.984375 -0.421875 3.296875 -0.5625 3.546875 -0.84375 C 3.804688 -1.132812 3.9375 -1.5625 3.9375 -2.125 C 3.9375 -2.445312 3.890625 -2.738281 3.796875 -3 C 3.703125 -3.269531 3.554688 -3.484375 3.359375 -3.640625 C 3.171875 -3.796875 2.929688 -3.875 2.640625 -3.875 C 2.410156 -3.875 2.191406 -3.816406 1.984375 -3.703125 C 1.773438 -3.585938 1.609375 -3.40625 1.484375 -3.15625 C 1.359375 -2.914062 1.296875 -2.59375 1.296875 -2.1875 L 1.296875 -1.953125 C 1.296875 -1.585938 1.359375 -1.289062 1.484375 -1.0625 C 1.617188 -0.832031 1.785156 -0.664062 1.984375 -0.5625 C 2.191406 -0.46875 2.398438 -0.421875 2.609375 -0.421875 Z M 2.609375 -0.421875 "/></g></g></g><g fill="#1d1d1d" fill-opacity="1"><g transform="translate(43.186679, 97.14571)"><g><path d="M 4.109375 -4.296875 L 2.34375 0.359375 C 2.164062 0.816406 1.957031 1.15625 1.71875 1.375 C 1.476562 1.59375 1.179688 1.703125 0.828125 1.703125 C 0.753906 1.703125 0.691406 1.695312 0.640625 1.6875 C 0.585938 1.6875 0.535156 1.6875 0.484375 1.6875 L 0.484375 1.109375 C 0.535156 1.117188 0.578125 1.125 0.609375 1.125 C 0.648438 1.125 0.691406 1.125 0.734375 1.125 C 0.941406 1.125 1.117188 1.066406 1.265625 0.953125 C 1.421875 0.847656 1.550781 0.65625 1.65625 0.375 L 1.71875 0.21875 L 0.015625 -4.296875 L 0.796875 -4.296875 L 2.078125 -0.515625 L 3.34375 -4.296875 Z M 4.109375 -4.296875 "/></g></g></g><g fill="#1d1d1d" fill-opacity="1"><g transform="translate(47.062431, 97.14571)"><g/></g></g><g fill="#1d1d1d" fill-opacity="1"><g transform="translate(48.537266, 97.14571)"><g><path d="M 2 -5.015625 L 1.65625 -3.078125 L 4.359375 -3.078125 L 4.25 -2.515625 L 1.5625 -2.515625 L 1.21875 -0.5625 L 4.234375 -0.5625 L 4.140625 0 L 0.421875 0 L 1.40625 -5.578125 L 5.046875 -5.578125 L 4.9375 -5.015625 Z M 2 -5.015625 "/></g></g></g><g fill="#1d1d1d" fill-opacity="1"><g transform="translate(53.060326, 97.14571)"><g><path d="M 3.078125 -4.40625 C 3.503906 -4.40625 3.828125 -4.304688 4.046875 -4.109375 C 4.273438 -3.910156 4.390625 -3.640625 4.390625 -3.296875 C 4.390625 -3.078125 4.359375 -2.78125 4.296875 -2.40625 L 3.859375 0 L 3.15625 0 L 3.578125 -2.359375 C 3.640625 -2.691406 3.671875 -2.941406 3.671875 -3.109375 C 3.671875 -3.617188 3.394531 -3.867188 2.84375 -3.859375 C 2.007812 -3.828125 1.476562 -3.171875 1.25 -1.890625 L 0.921875 0 L 0.234375 0 L 0.984375 -4.296875 L 1.671875 -4.296875 L 1.546875 -3.546875 L 1.90625 -4.046875 C 2.25 -4.285156 2.640625 -4.40625 3.078125 -4.40625 Z M 3.078125 -4.40625 "/></g></g></g><g fill="#1d1d1d" fill-opacity="1"><g transform="translate(57.59957, 97.14571)"><g><path d="M 2.6875 -4.40625 C 3.3125 -4.40625 3.773438 -4.222656 4.078125 -3.859375 C 4.378906 -3.492188 4.53125 -3.046875 4.53125 -2.515625 C 4.53125 -2.210938 4.476562 -1.910156 4.375 -1.609375 C 4.28125 -1.304688 4.140625 -1.023438 3.953125 -0.765625 C 3.765625 -0.503906 3.503906 -0.289062 3.171875 -0.125 C 2.847656 0.03125 2.476562 0.109375 2.0625 0.109375 C 1.445312 0.109375 0.988281 -0.0664062 0.6875 -0.421875 C 0.382812 -0.785156 0.234375 -1.238281 0.234375 -1.78125 C 0.234375 -2.082031 0.28125 -2.378906 0.375 -2.671875 C 0.46875 -2.972656 0.609375 -3.253906 0.796875 -3.515625 C 0.984375 -3.785156 1.242188 -4 1.578125 -4.15625 C 1.910156 -4.320312 2.28125 -4.40625 2.6875 -4.40625 Z M 2.15625 -0.421875 C 2.488281 -0.421875 2.78125 -0.523438 3.03125 -0.734375 C 3.289062 -0.953125 3.476562 -1.210938 3.59375 -1.515625 C 3.707031 -1.828125 3.765625 -2.15625 3.765625 -2.5 C 3.765625 -2.894531 3.664062 -3.222656 3.46875 -3.484375 C 3.28125 -3.742188 2.992188 -3.875 2.609375 -3.875 C 2.265625 -3.875 1.960938 -3.765625 1.703125 -3.546875 C 1.453125 -3.335938 1.269531 -3.078125 1.15625 -2.765625 C 1.039062 -2.460938 0.984375 -2.140625 0.984375 -1.796875 C 0.984375 -1.390625 1.082031 -1.054688 1.28125 -0.796875 C 1.476562 -0.546875 1.769531 -0.421875 2.15625 -0.421875 Z M 2.15625 -0.421875 "/></g></g></g><g fill="#1d1d1d" fill-opacity="1"><g transform="translate(62.082175, 97.14571)"><g><path d="M 2.65625 -4.40625 C 3.15625 -4.40625 3.53125 -4.265625 3.78125 -3.984375 C 4.03125 -3.710938 4.160156 -3.332031 4.171875 -2.84375 L 3.4375 -2.84375 C 3.40625 -3.53125 3.101562 -3.875 2.53125 -3.875 C 2.082031 -3.875 1.707031 -3.660156 1.40625 -3.234375 C 1.113281 -2.816406 0.96875 -2.273438 0.96875 -1.609375 C 0.96875 -1.210938 1.050781 -0.914062 1.21875 -0.71875 C 1.394531 -0.519531 1.625 -0.421875 1.90625 -0.421875 C 2.519531 -0.421875 2.953125 -0.738281 3.203125 -1.375 L 3.9375 -1.375 C 3.726562 -0.863281 3.445312 -0.488281 3.09375 -0.25 C 2.75 -0.0078125 2.316406 0.109375 1.796875 0.109375 C 1.316406 0.109375 0.929688 -0.0351562 0.640625 -0.328125 C 0.347656 -0.617188 0.203125 -1.035156 0.203125 -1.578125 C 0.203125 -2.066406 0.289062 -2.519531 0.46875 -2.9375 C 0.65625 -3.363281 0.9375 -3.710938 1.3125 -3.984375 C 1.695312 -4.265625 2.144531 -4.40625 2.65625 -4.40625 Z M 2.65625 -4.40625 "/></g></g></g><g fill="#1d1d1d" fill-opacity="1"><g transform="translate(66.103572, 97.14571)"><g><path d="M 3.078125 -4.40625 C 3.503906 -4.40625 3.828125 -4.304688 4.046875 -4.109375 C 4.273438 -3.910156 4.390625 -3.640625 4.390625 -3.296875 C 4.390625 -3.078125 4.359375 -2.78125 4.296875 -2.40625 L 3.859375 0 L 3.15625 0 L 3.578125 -2.359375 C 3.640625 -2.691406 3.671875 -2.941406 3.671875 -3.109375 C 3.671875 -3.617188 3.394531 -3.867188 2.84375 -3.859375 C 2.007812 -3.828125 1.476562 -3.171875 1.25 -1.890625 L 0.921875 0 L 0.234375 0 L 1.28125 -5.984375 L 1.96875 -5.984375 L 1.546875 -3.546875 L 1.90625 -4.046875 C 2.25 -4.285156 2.640625 -4.40625 3.078125 -4.40625 Z M 3.078125 -4.40625 "/></g></g></g><g fill="#1d1d1d" fill-opacity="1"><g transform="translate(70.642816, 97.14571)"><g/></g></g><g fill="#1d1d1d" fill-opacity="1"><g transform="translate(71.953618, 97.14571)"><g><path d="M 8.25 -5.578125 L 5.71875 0 L 4.796875 0 L 4.390625 -4.8125 L 2.21875 0 L 1.296875 0 L 0.8125 -5.578125 L 1.59375 -5.578125 L 1.90625 -0.71875 L 4.015625 -5.5 L 5 -5.5 L 5.40625 -0.71875 L 7.484375 -5.578125 Z M 8.25 -5.578125 "/></g></g></g><g fill="#1d1d1d" fill-opacity="1"><g transform="translate(79.389567, 97.14571)"><g><path d="M 3.078125 -4.40625 C 3.503906 -4.40625 3.828125 -4.304688 4.046875 -4.109375 C 4.273438 -3.910156 4.390625 -3.640625 4.390625 -3.296875 C 4.390625 -3.078125 4.359375 -2.78125 4.296875 -2.40625 L 3.859375 0 L 3.15625 0 L 3.578125 -2.359375 C 3.640625 -2.691406 3.671875 -2.941406 3.671875 -3.109375 C 3.671875 -3.617188 3.394531 -3.867188 2.84375 -3.859375 C 2.007812 -3.828125 1.476562 -3.171875 1.25 -1.890625 L 0.921875 0 L 0.234375 0 L 1.28125 -5.984375 L 1.96875 -5.984375 L 1.546875 -3.546875 L 1.90625 -4.046875 C 2.25 -4.285156 2.640625 -4.40625 3.078125 -4.40625 Z M 3.078125 -4.40625 "/></g></g></g><g fill="#1d1d1d" fill-opacity="1"><g transform="translate(83.92881, 97.14571)"><g><path d="M 1.59375 -5.703125 C 1.695312 -5.703125 1.785156 -5.664062 1.859375 -5.59375 C 1.929688 -5.519531 1.96875 -5.429688 1.96875 -5.328125 C 1.96875 -5.179688 1.914062 -5.054688 1.8125 -4.953125 C 1.707031 -4.859375 1.582031 -4.8125 1.4375 -4.8125 C 1.320312 -4.8125 1.226562 -4.84375 1.15625 -4.90625 C 1.09375 -4.976562 1.0625 -5.070312 1.0625 -5.1875 C 1.0625 -5.332031 1.113281 -5.453125 1.21875 -5.546875 C 1.320312 -5.648438 1.445312 -5.703125 1.59375 -5.703125 Z M 0.921875 0 L 0.234375 0 L 0.984375 -4.296875 L 1.6875 -4.296875 Z M 0.921875 0 "/></g></g></g><g fill="#1d1d1d" fill-opacity="1"><g transform="translate(85.547077, 97.14571)"><g><path d="M 1.640625 -3.71875 L 1.203125 -1.25 C 1.171875 -1.039062 1.15625 -0.894531 1.15625 -0.8125 C 1.15625 -0.65625 1.207031 -0.550781 1.3125 -0.5 C 1.425781 -0.457031 1.601562 -0.460938 1.84375 -0.515625 L 1.734375 0 C 1.578125 0.0390625 1.40625 0.0625 1.21875 0.0625 C 0.6875 0.0625 0.421875 -0.144531 0.421875 -0.5625 C 0.421875 -0.6875 0.453125 -0.90625 0.515625 -1.21875 L 0.953125 -3.71875 L 0.390625 -3.71875 L 0.484375 -4.25 L 1.046875 -4.25 L 1.21875 -5.25 L 1.921875 -5.25 L 1.734375 -4.25 L 2.484375 -4.25 L 2.375 -3.71875 Z M 1.640625 -3.71875 "/></g></g></g><g fill="#1d1d1d" fill-opacity="1"><g transform="translate(87.723654, 97.14571)"><g><path d="M 2.453125 -4.40625 C 2.921875 -4.40625 3.269531 -4.3125 3.5 -4.125 C 3.726562 -3.9375 3.84375 -3.675781 3.84375 -3.34375 C 3.84375 -3.195312 3.816406 -2.984375 3.765625 -2.703125 L 3.484375 -1.09375 C 3.429688 -0.78125 3.390625 -0.414062 3.359375 0 L 2.671875 0 L 2.703125 -0.609375 L 2.390625 -0.234375 C 2.160156 -0.00390625 1.785156 0.109375 1.265625 0.109375 C 0.941406 0.109375 0.664062 0.015625 0.4375 -0.171875 C 0.207031 -0.367188 0.09375 -0.644531 0.09375 -1 C 0.09375 -1.59375 0.363281 -2.019531 0.90625 -2.28125 C 1.457031 -2.550781 2.171875 -2.648438 3.046875 -2.578125 L 3.0625 -2.6875 C 3.113281 -2.957031 3.140625 -3.148438 3.140625 -3.265625 C 3.140625 -3.441406 3.082031 -3.585938 2.96875 -3.703125 C 2.863281 -3.816406 2.691406 -3.875 2.453125 -3.875 C 2.097656 -3.875 1.832031 -3.796875 1.65625 -3.640625 C 1.476562 -3.492188 1.351562 -3.269531 1.28125 -2.96875 L 0.5625 -2.96875 C 0.65625 -3.414062 0.867188 -3.765625 1.203125 -4.015625 C 1.535156 -4.273438 1.953125 -4.40625 2.453125 -4.40625 Z M 1.59375 -0.421875 C 1.875 -0.421875 2.140625 -0.535156 2.390625 -0.765625 C 2.648438 -0.992188 2.8125 -1.28125 2.875 -1.625 L 2.96875 -2.078125 C 2.375 -2.140625 1.875 -2.082031 1.46875 -1.90625 C 1.0625 -1.738281 0.859375 -1.457031 0.859375 -1.0625 C 0.859375 -0.863281 0.925781 -0.707031 1.0625 -0.59375 C 1.195312 -0.476562 1.375 -0.421875 1.59375 -0.421875 Z M 1.59375 -0.421875 "/></g></g></g><g fill="#1d1d1d" fill-opacity="1"><g transform="translate(91.542767, 97.14571)"><g><path d="M 2.21875 -2.265625 L 3.84375 0 L 3 0 L 1.703125 -1.875 L 1.171875 -1.40625 L 0.921875 0 L 0.234375 0 L 1.28125 -5.953125 L 1.96875 -5.953125 L 1.3125 -2.171875 L 3.6875 -4.296875 L 4.578125 -4.296875 Z M 2.21875 -2.265625 "/></g></g></g><g fill="#1d1d1d" fill-opacity="1"><g transform="translate(95.450889, 97.14571)"><g><path d="M 4.078125 -1.9375 L 0.984375 -1.9375 C 0.972656 -1.78125 0.96875 -1.664062 0.96875 -1.59375 C 0.96875 -1.195312 1.050781 -0.898438 1.21875 -0.703125 C 1.394531 -0.515625 1.632812 -0.421875 1.9375 -0.421875 C 2.21875 -0.421875 2.472656 -0.503906 2.703125 -0.671875 C 2.941406 -0.847656 3.113281 -1.085938 3.21875 -1.390625 L 3.9375 -1.390625 C 3.769531 -0.890625 3.488281 -0.515625 3.09375 -0.265625 C 2.707031 -0.015625 2.28125 0.109375 1.8125 0.109375 C 1.320312 0.109375 0.929688 -0.0351562 0.640625 -0.328125 C 0.347656 -0.617188 0.203125 -1.03125 0.203125 -1.5625 C 0.203125 -1.894531 0.25 -2.21875 0.34375 -2.53125 C 0.4375 -2.851562 0.570312 -3.15625 0.75 -3.4375 C 0.925781 -3.726562 1.171875 -3.960938 1.484375 -4.140625 C 1.804688 -4.316406 2.175781 -4.40625 2.59375 -4.40625 C 3.082031 -4.40625 3.472656 -4.257812 3.765625 -3.96875 C 4.054688 -3.675781 4.203125 -3.289062 4.203125 -2.8125 C 4.203125 -2.5 4.160156 -2.207031 4.078125 -1.9375 Z M 2.484375 -3.875 C 2.097656 -3.875 1.785156 -3.738281 1.546875 -3.46875 C 1.316406 -3.207031 1.15625 -2.875 1.0625 -2.46875 L 3.484375 -2.46875 C 3.492188 -2.601562 3.5 -2.703125 3.5 -2.765625 C 3.5 -3.117188 3.40625 -3.390625 3.21875 -3.578125 C 3.039062 -3.773438 2.796875 -3.875 2.484375 -3.875 Z M 2.484375 -3.875 "/></g></g></g><g fill="#1d1d1d" fill-opacity="1"><g transform="translate(99.537025, 97.14571)"><g><path d="M 2.6875 -4.390625 C 2.800781 -4.390625 2.894531 -4.367188 2.96875 -4.328125 L 2.875 -3.796875 C 2.5 -3.828125 2.171875 -3.726562 1.890625 -3.5 C 1.617188 -3.269531 1.441406 -2.914062 1.359375 -2.4375 L 0.921875 0 L 0.234375 0 L 0.984375 -4.296875 L 1.6875 -4.296875 L 1.5625 -3.625 L 2.0625 -4.1875 C 2.257812 -4.320312 2.46875 -4.390625 2.6875 -4.390625 Z M 2.6875 -4.390625 "/></g></g></g></svg>