<svg width="267" height="267" viewBox="0 0 267 267" fill="none" xmlns="http://www.w3.org/2000/svg">
<g clip-path="url(#clip0_22_844)">
<mask id="mask0_22_844" style="mask-type:luminance" maskUnits="userSpaceOnUse" x="0" y="0" width="267" height="267">
<path d="M0.00415039 0H266.344V266.34H0.00415039V0Z" fill="white"/>
</mask>
<g mask="url(#mask0_22_844)">
<path d="M0.0665638 133.17C0.0665638 59.6353 59.674 0.027832 133.209 0.027832C206.737 0.027832 266.344 59.6353 266.344 133.17C266.344 205.963 207.923 265.133 135.414 266.312H0.0665638L41.8903 230.072C38.5957 226.972 35.4607 223.712 32.499 220.292C29.5374 216.873 26.7491 213.308 24.1551 209.604C21.5541 205.9 19.1473 202.072 16.9417 198.118C14.7291 194.165 12.7316 190.114 10.9352 185.96C9.13877 181.798 7.56431 177.567 6.20487 173.246C4.84542 168.932 3.70793 164.555 2.79239 160.123C1.88378 155.684 1.19712 151.217 0.73935 146.716C0.281579 142.215 0.0596283 137.699 0.0665638 133.17Z" fill="#1D1D1D"/>
</g>
<path d="M44.0224 92.3994C52.1028 92.3994 58.6433 94.612 63.6372 99.0302C68.6311 103.455 71.4401 109.171 72.0713 116.176H56.3684C54.9812 107.783 50.7433 103.58 43.6617 103.58C39.4447 103.58 36.0738 105.321 33.563 108.796C31.0661 112.257 29.8176 117.369 29.8176 124.138C29.8176 131.449 31.0452 136.893 33.5075 140.479C35.9628 144.051 39.3129 145.834 43.5507 145.834C46.7135 145.834 49.3839 144.835 51.5687 142.838C53.7674 140.826 55.2586 137.941 56.0354 134.182H71.9603C70.6425 141.561 67.3896 147.214 62.1945 151.133C56.9926 155.059 50.4728 157.015 42.6352 157.015C33.9375 157.015 26.8768 154.268 21.439 148.775C16.0151 143.268 13.3101 135.395 13.3101 125.165C13.3101 115.011 16.2301 107.013 22.0771 101.166C27.938 95.3264 35.2554 92.3994 44.0224 92.3994Z" fill="#F7E638"/>
<path d="M129.636 109.573C129.948 112.347 130.108 116.086 130.108 120.781V155.406H114.183V122.973C114.183 119.366 114.107 116.523 113.961 114.428C113.42 107.201 109.494 103.58 102.17 103.58C98.0222 103.656 94.6791 105.619 92.1267 109.462C89.5881 113.311 88.3258 119.276 88.3258 127.357V155.406H72.4009V70.0103H88.3258V103.941L93.07 96.672C97.0651 93.8283 101.983 92.3995 107.83 92.3995C114.301 92.3995 119.399 93.8976 123.116 96.8939C126.848 99.8903 129.026 104.121 129.636 109.573Z" fill="#F7E638"/>
<path d="M135.863 73.5339C137.486 71.9456 139.609 71.1479 142.217 71.1479C144.839 71.1479 146.961 71.9456 148.57 73.5339C150.179 75.1084 150.984 77.1267 150.984 79.582C150.984 82.1206 150.179 84.1598 148.57 85.7134C146.961 87.2532 144.839 88.0161 142.217 88.0161C139.609 88.0161 137.486 87.2532 135.863 85.7134C134.254 84.1598 133.45 82.1206 133.45 79.582C133.45 77.1267 134.254 75.1084 135.863 73.5339ZM150.179 155.406H134.254V94.0088H150.179V155.406Z" fill="#F7E638"/>
<path d="M186.408 92.5107C188.183 92.5107 189.689 92.6633 190.93 92.9546V105.772C184.161 105.314 179.153 106.757 175.921 110.1C172.682 113.45 171.066 119.166 171.066 127.246V155.406H155.141V94.0089H171.066V105.19L175.921 96.6723C178.917 93.8979 182.413 92.5107 186.408 92.5107Z" fill="#F7E638"/>
<path d="M225.666 92.3994C234.114 92.3994 240.786 95.2848 245.669 101.055C250.566 106.826 253.021 114.331 253.021 123.556C253.021 134.175 250.205 142.408 244.587 148.248C238.962 154.095 231.963 157.015 223.585 157.015C217.273 157.015 212.467 155.856 209.158 153.547L205.108 147.221V178.017H189.183V94.0086H205.108V103.358L209.741 96.672C213.271 93.8282 218.577 92.3994 225.666 92.3994ZM220.45 145.834C225.222 145.834 229.085 144.017 232.047 140.368C235.022 136.706 236.513 131.449 236.513 124.582C236.513 118.277 235.105 113.2 232.296 109.351C229.48 105.508 225.728 103.58 221.032 103.58C216.261 103.58 212.411 105.217 209.491 108.491C206.564 111.765 205.108 116.939 205.108 124V126.885C205.108 133.363 206.606 138.142 209.602 141.228C212.612 144.301 216.233 145.834 220.45 145.834Z" fill="#F7E638"/>
<path d="M49.9263 164.668C50.6823 164.668 51.3135 164.848 51.8129 165.195C52.3261 165.528 52.7145 165.993 52.9781 166.582C53.2555 167.158 53.3943 167.824 53.3943 168.58C53.3943 169.509 53.2139 170.272 52.8671 170.883C52.5342 171.493 52.0764 171.951 51.5077 172.242C50.9528 172.533 50.3424 172.686 49.6766 172.686C49.3575 172.686 49.0177 172.637 48.6501 172.547C48.2963 172.457 48.0258 172.339 47.8455 172.187L47.3461 171.437V172.492H46.0977V161.921H47.3461V166.083L47.9287 165.278C48.1507 165.098 48.4351 164.945 48.7888 164.834C49.1564 164.724 49.5379 164.668 49.9263 164.668ZM49.6766 171.743C50.3424 171.743 50.8973 171.493 51.3412 170.994C51.799 170.48 52.0348 169.717 52.0348 168.719C52.0348 168.15 51.9516 167.63 51.7851 167.165C51.6187 166.686 51.3551 166.305 51.0083 166.027C50.6754 165.75 50.2453 165.611 49.7321 165.611C49.3229 165.611 48.9345 165.715 48.5668 165.916C48.1923 166.125 47.901 166.444 47.679 166.888C47.4571 167.318 47.3461 167.886 47.3461 168.608V169.024C47.3461 169.676 47.4571 170.203 47.679 170.605C47.9149 171.014 48.2131 171.313 48.5668 171.493C48.9345 171.659 49.3021 171.743 49.6766 171.743Z" fill="#F7E638"/>
<path d="M60.6297 164.862L57.4947 173.13C57.1756 173.941 56.808 174.545 56.3849 174.933C55.9549 175.322 55.4278 175.516 54.8035 175.516C54.6717 175.516 54.5608 175.502 54.4706 175.488C54.3735 175.488 54.2833 175.488 54.1932 175.488V174.462C54.2833 174.476 54.3596 174.489 54.4151 174.489C54.4845 174.489 54.5608 174.489 54.6371 174.489C55.0047 174.489 55.3168 174.385 55.5803 174.184C55.8578 173.997 56.0867 173.657 56.2739 173.158L56.3849 172.88L53.3608 164.862H54.748L57.023 171.576L59.2703 164.862H60.6297Z" fill="#F7E638"/>
<path d="M66.3849 163.586L65.7745 167.026H70.5742L70.38 168.025H65.6081L64.9977 171.493H70.3522L70.1858 172.492H63.5828L65.3306 162.587H71.7949L71.6007 163.586H66.3849Z" fill="#F7E638"/>
<path d="M76.3304 164.668C77.0864 164.668 77.6621 164.848 78.0505 165.195C78.4528 165.549 78.6608 166.027 78.6608 166.638C78.6608 167.026 78.6054 167.553 78.4944 168.219L77.7176 172.492H76.4691L77.2182 168.302C77.3291 167.713 77.3846 167.269 77.3846 166.971C77.3846 166.069 76.8922 165.625 75.9142 165.639C74.4299 165.694 73.4866 166.86 73.0843 169.135L72.5017 172.492H71.281L72.6127 164.862H73.8334L73.6115 166.194L74.2496 165.306C74.8599 164.883 75.5535 164.668 76.3304 164.668Z" fill="#F7E638"/>
<path d="M83.6966 164.668C84.8063 164.668 85.6248 164.994 86.1658 165.639C86.6998 166.291 86.9704 167.082 86.9704 168.025C86.9704 168.566 86.8732 169.1 86.6929 169.634C86.5265 170.175 86.2768 170.674 85.9438 171.132C85.6109 171.597 85.1462 171.978 84.5566 172.27C83.981 172.547 83.322 172.686 82.5868 172.686C81.491 172.686 80.6795 172.374 80.1454 171.743C79.6044 171.098 79.3408 170.293 79.3408 169.329C79.3408 168.795 79.4241 168.268 79.5905 167.748C79.757 167.213 80.0067 166.714 80.3396 166.249C80.6725 165.771 81.1303 165.389 81.7268 165.112C82.3163 164.821 82.9753 164.668 83.6966 164.668ZM82.7533 171.743C83.3429 171.743 83.8631 171.562 84.307 171.188C84.7647 170.799 85.0976 170.342 85.3057 169.801C85.5069 169.246 85.6109 168.663 85.6109 168.053C85.6109 167.352 85.4306 166.77 85.0838 166.305C84.7509 165.847 84.2376 165.611 83.5579 165.611C82.9475 165.611 82.4065 165.805 81.9487 166.194C81.5048 166.568 81.1788 167.026 80.9777 167.581C80.7696 168.122 80.6725 168.691 80.6725 169.301C80.6725 170.023 80.8459 170.619 81.1997 171.077C81.5464 171.521 82.0666 171.743 82.7533 171.743Z" fill="#F7E638"/>
<path d="M91.6004 164.668C92.4882 164.668 93.154 164.918 93.5979 165.417C94.0418 165.903 94.2707 166.575 94.2915 167.442H92.9876C92.9321 166.222 92.3911 165.611 91.3784 165.611C90.5808 165.611 89.915 165.993 89.3809 166.749C88.8607 167.491 88.6041 168.455 88.6041 169.634C88.6041 170.342 88.7497 170.869 89.048 171.215C89.3601 171.569 89.7693 171.743 90.2687 171.743C91.3576 171.743 92.1275 171.181 92.5714 170.05H93.8754C93.5008 170.959 93.0015 171.625 92.3772 172.048C91.7669 172.478 90.997 172.686 90.0745 172.686C89.2214 172.686 88.5347 172.429 88.0215 171.909C87.5013 171.396 87.2446 170.654 87.2446 169.69C87.2446 168.823 87.3972 168.018 87.7163 167.276C88.0492 166.52 88.5486 165.903 89.2144 165.417C89.8942 164.918 90.6918 164.668 91.6004 164.668Z" fill="#F7E638"/>
<path d="M99.4898 164.668C100.246 164.668 100.821 164.849 101.21 165.195C101.612 165.549 101.82 166.028 101.82 166.638C101.82 167.027 101.765 167.554 101.654 168.22L100.877 172.492H99.6285L100.378 168.303C100.489 167.713 100.544 167.269 100.544 166.971C100.544 166.069 100.052 165.625 99.0736 165.639C97.5893 165.695 96.6461 166.86 96.2438 169.135L95.6612 172.492H94.4404L96.2993 161.866H97.52L96.7709 166.194L97.409 165.306C98.0194 164.883 98.713 164.668 99.4898 164.668Z" fill="#F7E638"/>
<path d="M119.061 162.587L114.566 172.492H112.929L112.208 163.947L108.351 172.492H106.715L105.854 162.587H107.242L107.797 171.216L111.542 162.726H113.29L114.011 171.216L117.701 162.587H119.061Z" fill="#F7E638"/>
<path d="M123.08 164.668C123.836 164.668 124.412 164.849 124.8 165.195C125.203 165.549 125.411 166.028 125.411 166.638C125.411 167.027 125.355 167.554 125.244 168.22L124.468 172.492H123.219L123.968 168.303C124.079 167.713 124.135 167.269 124.135 166.971C124.135 166.069 123.642 165.625 122.664 165.639C121.18 165.695 120.237 166.86 119.834 169.135L119.252 172.492H118.031L119.89 161.866H121.111L120.361 166.194L121 165.306C121.61 164.883 122.304 164.668 123.08 164.668Z" fill="#F7E638"/>
<path d="M128.505 162.365C128.685 162.365 128.845 162.435 128.976 162.559C129.101 162.691 129.171 162.851 129.171 163.031C129.171 163.295 129.074 163.517 128.893 163.697C128.706 163.863 128.484 163.947 128.227 163.947C128.019 163.947 127.853 163.891 127.728 163.78C127.617 163.655 127.561 163.489 127.561 163.281C127.561 163.024 127.652 162.809 127.839 162.643C128.019 162.462 128.241 162.365 128.505 162.365ZM127.312 172.492H126.091L127.423 164.862H128.671L127.312 172.492Z" fill="#F7E638"/>
<path d="M131.461 165.889L130.685 170.272C130.629 170.647 130.601 170.903 130.601 171.049C130.601 171.327 130.692 171.514 130.879 171.604C131.08 171.68 131.392 171.673 131.822 171.576L131.628 172.492C131.35 172.561 131.045 172.603 130.712 172.603C129.769 172.603 129.297 172.235 129.297 171.493C129.297 171.271 129.353 170.883 129.464 170.328L130.241 165.889H129.242L129.408 164.946H130.407L130.712 163.17H131.961L131.628 164.946H132.96L132.765 165.889H131.461Z" fill="#F7E638"/>
<path d="M136.769 164.668C137.601 164.668 138.218 164.834 138.627 165.167C139.03 165.5 139.238 165.965 139.238 166.555C139.238 166.818 139.189 167.193 139.099 167.692L138.6 170.55C138.503 171.105 138.433 171.756 138.378 172.492H137.157L137.213 171.41L136.658 172.076C136.248 172.485 135.583 172.686 134.66 172.686C134.084 172.686 133.592 172.519 133.19 172.187C132.78 171.84 132.579 171.347 132.579 170.716C132.579 169.662 133.058 168.906 134.022 168.441C135 167.963 136.269 167.789 137.823 167.914L137.851 167.72C137.941 167.241 137.989 166.901 137.989 166.693C137.989 166.381 137.885 166.125 137.684 165.916C137.497 165.715 137.192 165.611 136.769 165.611C136.137 165.611 135.666 165.75 135.354 166.027C135.035 166.291 134.813 166.686 134.688 167.22H133.412C133.578 166.43 133.953 165.805 134.549 165.362C135.139 164.904 135.881 164.668 136.769 164.668ZM135.243 171.743C135.742 171.743 136.214 171.541 136.658 171.132C137.115 170.73 137.407 170.217 137.518 169.606L137.684 168.802C136.63 168.691 135.742 168.795 135.021 169.107C134.299 169.405 133.939 169.905 133.939 170.605C133.939 170.959 134.057 171.236 134.299 171.437C134.535 171.646 134.854 171.743 135.243 171.743Z" fill="#F7E638"/>
<path d="M143.134 168.469L146.019 172.492H144.521L142.218 169.163L141.275 169.995L140.831 172.492H139.61L141.469 161.921H142.69L141.525 168.635L145.742 164.862H147.323L143.134 168.469Z" fill="#F7E638"/>
<path d="M153.375 169.051H147.881C147.861 169.329 147.854 169.537 147.854 169.662C147.854 170.369 147.999 170.896 148.297 171.243C148.61 171.576 149.033 171.743 149.574 171.743C150.073 171.743 150.524 171.597 150.933 171.299C151.356 170.987 151.661 170.564 151.849 170.023H153.125C152.827 170.91 152.327 171.576 151.627 172.02C150.94 172.464 150.184 172.686 149.352 172.686C148.478 172.686 147.784 172.429 147.271 171.909C146.751 171.396 146.494 170.661 146.494 169.717C146.494 169.128 146.577 168.552 146.744 167.997C146.91 167.428 147.146 166.887 147.465 166.388C147.777 165.875 148.214 165.459 148.769 165.14C149.338 164.827 149.997 164.668 150.739 164.668C151.606 164.668 152.3 164.932 152.82 165.445C153.333 165.965 153.597 166.652 153.597 167.498C153.597 168.053 153.52 168.573 153.375 169.051ZM150.545 165.611C149.858 165.611 149.303 165.854 148.88 166.333C148.471 166.797 148.187 167.387 148.02 168.108H152.32C152.334 167.872 152.348 167.692 152.348 167.581C152.348 166.957 152.182 166.471 151.849 166.138C151.53 165.792 151.1 165.611 150.545 165.611Z" fill="#F7E638"/>
<path d="M158.161 164.696C158.362 164.696 158.528 164.737 158.66 164.807L158.494 165.75C157.828 165.695 157.245 165.875 156.746 166.277C156.26 166.686 155.948 167.318 155.802 168.164L155.026 172.492H153.805L155.137 164.862H156.385L156.163 166.055L157.051 165.056C157.398 164.821 157.772 164.696 158.161 164.696Z" fill="#F7E638"/>
</g>
<defs>
<clipPath id="clip0_22_844">
<rect width="266.34" height="266.34" fill="white"/>
</clipPath>
</defs>
</svg>
